<svg width="22" height="19" viewBox="0 0 22 19" fill="none" xmlns="http://www.w3.org/2000/svg">
<path d="M11.6444 18.6826L19.7629 10.4874C20.8161 9.41244 21.4042 7.96628 21.4001 6.46134C21.3959 4.95641 20.7999 3.5135 19.7408 2.44432C19.2213 1.91435 18.6015 1.49298 17.9176 1.20472C17.2337 0.916472 16.4993 0.767094 15.7572 0.765279C15.015 0.763464 14.2799 0.90925 13.5946 1.19415C12.9093 1.47906 12.2875 1.89739 11.7653 2.42482L10.9905 3.20872L10.204 2.41572C9.68519 1.88645 9.06629 1.46561 8.38334 1.17768C7.70038 0.889752 6.967 0.74048 6.22583 0.738544C5.48467 0.736609 4.75051 0.882049 4.06606 1.16641C3.38161 1.45076 2.76053 1.86837 2.23893 2.39492C0.04453 4.61142 0.0549301 8.21372 2.25973 10.4406L10.4198 18.6826C10.7578 19.0245 11.3064 19.0245 11.6444 18.6826ZM12.6896 3.33872C13.091 2.93362 13.5689 2.61242 14.0956 2.39386C14.6223 2.1753 15.1872 2.06374 15.7574 2.06567C16.3277 2.06761 16.8918 2.183 17.417 2.40514C17.9422 2.62727 18.418 2.9517 18.8165 3.35952C19.6345 4.18547 20.0951 5.29982 20.099 6.46227C20.1029 7.62471 19.6498 8.74212 18.8373 9.57352V9.57612L11.0321 17.4541L3.18273 9.52542C1.47583 7.80162 1.47453 5.01442 3.16323 3.30882C3.56404 2.90446 4.0413 2.58388 4.5672 2.36574C5.0931 2.14759 5.65714 2.03625 6.22649 2.03818C6.79583 2.04012 7.35911 2.1553 7.88351 2.37701C8.40792 2.59873 8.88298 2.92255 9.28103 3.32962L10.529 4.59062C10.5895 4.65174 10.6615 4.70027 10.7408 4.73338C10.8201 4.7665 10.9052 4.78355 10.9912 4.78355C11.0771 4.78355 11.1623 4.7665 11.2416 4.73338C11.3209 4.70027 11.3929 4.65174 11.4533 4.59062L12.6896 3.33872Z" fill="white"/>
</svg>
